<svg width="18" height="18" viewBox="0 0 18 18" fill="none" xmlns="http://www.w3.org/2000/svg">
<path d="M13.0587 5.48626V6.71705C13.0587 8.07655 10.4963 8.38444 9.00311 8.38444C7.5099 8.38444 4.94755 7.89775 4.94755 6.53825V5.30746M3.49533 1.00281L14.4394 1C15.1437 0.999819 15.7301 1.49199 15.7872 2.13111L16.9955 15.6695C17.056 16.347 16.5017 16.9409 15.7576 16.996C15.7211 16.9987 15.6846 17 15.6481 17H2.35185C1.60525 17 1 16.449 1 15.7692C1 15.7377 1.00133 15.7062 1.00398 15.6748L2.14784 2.13919C2.20202 1.49809 2.78909 1.00299 3.49533 1.00281Z" stroke="#182C3E" stroke-width="1.5" stroke-linecap="round" stroke-linejoin="round"/>
</svg>
