<svg width="18" height="18" viewBox="0 0 18 18" fill="none" xmlns="http://www.w3.org/2000/svg">
<path d="M15.7663 2.41452C15.3753 1.96607 14.9111 1.61034 14.4002 1.36763C13.8893 1.12492 13.3417 1 12.7887 1C12.2357 1 11.6881 1.12492 11.1772 1.36763C10.6663 1.61034 10.2021 1.96607 9.81116 2.41452L8.9998 3.34476L8.18843 2.41452C7.39874 1.50912 6.32768 1.00047 5.21089 1.00047C4.09409 1.00047 3.02303 1.50912 2.23334 2.41452C1.44365 3.31992 1 4.5479 1 5.82833C1 7.10875 1.44365 8.33674 2.23334 9.24214L3.0447 10.1724L8.9998 17L14.9549 10.1724L15.7663 9.24214C16.1574 8.79391 16.4677 8.26171 16.6794 7.67596C16.891 7.0902 17 6.46237 17 5.82833C17 5.19428 16.891 4.56645 16.6794 3.9807C16.4677 3.39494 16.1574 2.86275 15.7663 2.41452Z" stroke="#DEDEDE" stroke-width="2" stroke-linecap="round" stroke-linejoin="round"/>
</svg>
